<svg width="171" height="20" viewBox="0 0 171 20" fill="none" xmlns="http://www.w3.org/2000/svg">
<g clip-path="url(#clip0_199_724)">
<path fill-rule="evenodd" clip-rule="evenodd" d="M0 0.856348V19.3103H4.13433V11.5892H4.92834C7.17347 11.5892 8.02225 13.1772 8.65198 15.2581C9.09005 16.6271 9.44599 18.0508 10.0757 19.3103H14.566C13.6898 17.4758 13.0875 15.4771 12.4304 13.5058C11.6637 11.288 10.5959 9.64523 8.2139 9.04287L14.6481 0.856348H9.58289L4.49027 8.52266H4.13433V0.856348H0ZM15.25 0.856294H19.9593L22.6425 7.34528C23.1353 8.6595 23.5187 9.75469 23.9294 10.8773H24.0115C24.2579 10.0833 24.5591 8.85116 25.0245 7.29052L27.0233 0.856294H31.404L27.9542 9.80945C26.8316 12.6843 25.6817 15.4771 24.3127 17.1746C23.108 18.6805 21.5747 19.6114 19.4117 19.6114C18.4534 19.6114 17.8784 19.5019 17.3582 19.3102L17.6594 15.9699C17.988 16.052 18.426 16.1068 19.0284 16.1068C20.3152 16.1068 21.1914 15.2306 21.5199 14.3819C21.6842 14.0807 21.6021 13.8343 21.4652 13.5331L15.25 0.856294ZM34.0877 0.856348H46.518V19.3103H42.3563V4.27881H38.1672V8.65956C38.1672 13.3963 37.5649 17.0378 34.7722 18.6805C33.8413 19.2008 32.5818 19.5841 31.1033 19.5841L30.5831 16.2164C31.4866 16.1069 32.2259 15.7235 32.6913 15.2307C33.8139 14.0808 34.0877 11.7261 34.0877 8.93335V0.856348ZM50.1592 0.856294H54.3209V7.26314C54.8959 7.20838 55.772 7.12624 56.566 7.12624C60.5361 7.12624 63.9038 9.01544 63.9038 13.1224C63.9038 14.8747 63.3288 16.1889 62.4253 17.1472C60.6456 18.9543 57.5517 19.5019 54.6768 19.5019C52.6234 19.5019 51.0901 19.365 50.1592 19.2281V0.856294ZM54.294 10.4408V16.2727C54.7594 16.3548 55.2523 16.3822 55.8546 16.3822C57.8807 16.3822 59.5235 15.3965 59.5235 13.3157C59.5235 11.2074 57.9081 10.3313 55.9094 10.3313C55.307 10.3313 54.8142 10.3861 54.294 10.4408ZM67.7096 19.3102V4.3609H62.7539V0.856294H76.9366V4.3609H71.8987V19.3102H67.7096ZM78.1143 0.856348L84.3295 13.5332C84.4664 13.8343 84.5485 14.0808 84.3842 14.3819C84.0557 15.2307 83.1795 16.1069 81.8927 16.1069C81.2903 16.1069 80.8523 16.0521 80.5237 15.97L80.2225 19.3103C80.7428 19.5019 81.3177 19.6114 82.276 19.6114C84.439 19.6114 85.9723 18.6805 87.177 17.1747C88.546 15.4771 89.6959 12.6844 90.8185 9.8095L94.2683 0.856348H89.8876L87.8888 7.29057C87.4234 8.85122 87.1222 10.0833 86.8758 10.8773H86.7937C86.383 9.75474 85.9996 8.65956 85.5068 7.34533L82.8236 0.856348H78.1143ZM95.9384 19.3118V1.10426C97.2253 0.885225 99.0323 0.720947 101.579 0.720947C104.152 0.720947 105.987 1.21378 107.219 2.19945C108.396 3.13036 109.19 4.66362 109.19 6.47068C109.19 8.27774 108.588 9.811 107.493 10.8515C106.069 12.1931 103.961 12.7954 101.496 12.7954C100.949 12.7954 100.456 12.768 100.073 12.7133V19.3118H95.9384ZM100.073 4.03376V9.48231C100.429 9.56445 100.867 9.59183 101.47 9.59183C103.687 9.59183 105.056 8.46926 105.056 6.58007C105.056 4.88253 103.879 3.86948 101.798 3.86948C100.949 3.86948 100.374 3.95162 100.073 4.03376ZM119.758 14.5735H114.474L113.16 19.3102H108.834L114.474 0.856294H119.95L125.672 19.3102H121.182L119.758 14.5735ZM115.077 11.453H119.157L118.007 7.53772C117.678 6.44254 117.35 5.07355 117.076 3.97837H117.021C116.747 5.07355 116.474 6.46992 116.172 7.53772L115.077 11.453ZM130.136 19.612C131.615 19.612 132.6 18.5442 132.6 17.0931C132.6 15.5872 131.615 14.5467 130.163 14.5467C128.712 14.5467 127.699 15.6146 127.699 17.0931C127.699 18.5442 128.712 19.612 130.136 19.612Z" fill="#583D3E"/>
<path fill-rule="evenodd" clip-rule="evenodd" d="M135.457 19.2211V1.01363C136.744 0.794591 138.551 0.630313 141.097 0.630313C143.671 0.630313 145.505 1.12315 146.737 2.10882C147.915 3.03972 148.709 4.57299 148.709 6.38005C148.709 8.1871 148.106 9.72037 147.011 10.7608C145.588 12.1024 143.479 12.7048 141.015 12.7048C140.468 12.7048 139.975 12.6774 139.591 12.6226V19.2211H135.457ZM139.592 3.94309V9.39164C139.948 9.47378 140.386 9.50116 140.988 9.50116C143.206 9.50116 144.575 8.37859 144.575 6.4894C144.575 4.79186 143.398 3.77881 141.317 3.77881C140.468 3.77881 139.893 3.86095 139.592 3.94309ZM158.347 0H162.262V1.6154C166.177 1.8892 170.12 4.18909 170.12 9.93882C170.12 15.6338 166.287 17.9337 162.207 18.317V19.9872H158.292V18.317C154.294 18.0158 150.434 15.7433 150.434 10.0757C150.434 4.24385 154.787 1.91658 158.347 1.6154V0ZM158.319 15.4138V4.46191C156.704 4.68095 154.623 6.10469 154.623 9.99261C154.623 13.6067 156.677 15.1947 158.319 15.4138ZM162.234 4.46199V15.4139C163.85 15.2222 165.931 13.8532 165.931 9.93793C165.931 6.05001 163.959 4.68103 162.234 4.46199Z" fill="#583D3E"/>
</g>
<defs>
<clipPath id="clip0_199_724">
<rect width="171" height="20" fill="white"/>
</clipPath>
</defs>
</svg>
