<svg xmlns="http://www.w3.org/2000/svg" viewBox="0 0 617.55 108.08"><defs><style>.cls-1{fill:#E9D5CD;}</style></defs><g id="Слой_2" data-name="Слой 2"><g id="Слой_1-2" data-name="Слой 1"><path class="cls-1" d="M87.06,2.86c-.57,0-.91.21-1,.65a4.66,4.66,0,0,1-3.49,3.07,33.31,33.31,0,0,1-8.62.81l-10.55.17c-6.84.2-13.31.28-19.42.28q-17.87,0-31.22-.45C6.83,7.39,3.88,6.26,3.88,4c0-.53-.28-.77-.85-.77s-.84.24-.84.77q0,5-.79,14.84C.89,25.39.42,30.73,0,34.86c0,.32.26.52.79.56s.83-.08.93-.4Q9.79,10.93,28.27,11c2.89,0,4.81.61,5.74,1.86s1.4,3.64,1.4,7.16V91.88a17.5,17.5,0,0,1-1,6.92,5.34,5.34,0,0,1-3.72,3,31.89,31.89,0,0,1-8.31.81c-.31,0-.47.28-.47.93s.16.93.47.93c3.84,0,6.83-.08,9-.16L44,104.14l12.88.16c2.19.08,5.14.16,8.86.16.31,0,.47-.32.47-.93s-.16-.93-.47-.93a31.65,31.65,0,0,1-8.39-.81,5.15,5.15,0,0,1-3.56-2.91,19,19,0,0,1-1-7V20.26c0-3.6.51-6.07,1.48-7.37s3-1.94,6-1.94a22,22,0,0,1,15.69,6c4.25,4,7.14,10,8.7,17.92.1.32.4.48.93.48s.77-.16.77-.48c0-4.13.18-9.63.55-16.47s.7-11.81,1-14.88C87.91,3.07,87.62,2.86,87.06,2.86Z"/><circle class="cls-1" cx="155.84" cy="58.09" r="7.83"/><path class="cls-1" d="M132.11,13.38a5.74,5.74,0,0,1,3.64-3.19c1.76-.65,4.51-.93,8.23-.93.2,0,.31-.33.31-.94s-.11-.93-.31-.93l-8.53.17c-5.18.2-9.75.28-13.67.28-2.91,0-6.74-.08-11.51-.28l-8.37-.17c-.32,0-.47.29-.47.93s.15.94.47.94a25.35,25.35,0,0,1,7.68.84,5.43,5.43,0,0,1,3.34,3,18.3,18.3,0,0,1,.93,6.83V91.88a19,19,0,0,1-.93,6.92,5.05,5.05,0,0,1-3.42,3,28.24,28.24,0,0,1-7.92.81c-.21,0-.31.28-.31.93s.1.93.31.93c3.63,0,6.47-.08,8.55-.16l11.65-.16,13.51.16c2.18.08,5.07.16,8.69.16.2,0,.31-.32.31-.93s-.11-.93-.31-.93a31.75,31.75,0,0,1-8.39-.81,5,5,0,0,1-3.56-3,19,19,0,0,1-.93-6.92V20.26A17.41,17.41,0,0,1,132.11,13.38Z"/><path class="cls-1" d="M341.86,102.6q-6.36,0-13.06-5.22T313.51,80.84Q305.27,70,293.1,50.91A35.8,35.8,0,0,0,304,41a24.43,24.43,0,0,0,4.81-14.35,16.5,16.5,0,0,0-7.84-14.52q-7.86-5.22-22.15-5.22c-2.46,0-4.63,0-6.43.16s-3.3.2-4.43.32c-3.51.29-6.83.45-9.95.45-2.79,0-6.57-.08-11.32-.28l-8.23-.17c-.22,0-.32.29-.32.93s.1.93.32.93a22.52,22.52,0,0,1,7.14.85,4.82,4.82,0,0,1,3.09,3,21.45,21.45,0,0,1,.79,6.83V51.31H198.5V20a20,20,0,0,1,.85-6.83,5.19,5.19,0,0,1,3.42-3,27.13,27.13,0,0,1,7.84-.84c.31,0,.47-.33.47-.94s-.16-.93-.47-.93l-8.69.17c-5.18.2-9.16.28-12,.28-4.13,0-8.8-.08-14-.28l-7.6-.17c-.3,0-.47.29-.47.93s.17.94.47.94c3.82,0,6.63.28,8.39.93a5.46,5.46,0,0,1,3.56,3.19,18.89,18.89,0,0,1,.93,6.88V91.88a19,19,0,0,1-.93,7,5.13,5.13,0,0,1-3.56,2.91,31.75,31.75,0,0,1-8.39.81c-.3,0-.47.28-.47.93s.17.93.47.93c3.22,0,5.74-.08,7.6-.16l14-.16,12,.16c2.16.08,5.07.16,8.69.16.31,0,.47-.32.47-.93s-.16-.93-.47-.93a28.24,28.24,0,0,1-7.92-.81,4.8,4.8,0,0,1-3.34-3,20.8,20.8,0,0,1-.85-6.92V56.53h50.95V91.88a20.8,20.8,0,0,1-.85,6.92,4.84,4.84,0,0,1-3.11,3,23.52,23.52,0,0,1-7.22.81c-.31,0-.47.28-.47.93s.16.93.47.93c3.52,0,6.31-.08,8.39-.16l11.32-.16,11.81.16c2,.08,4.65.16,8.07.16.22,0,.33-.32.33-.93s-.11-.93-.33-.93a23.52,23.52,0,0,1-7.22-.81,4.68,4.68,0,0,1-3-2.91,23.1,23.1,0,0,1-.77-7V56.53h12.51Q292,78.55,301,91.11q9.62,13.35,13.2,13.35h27.64c.21,0,.31-.32.31-.93S342.07,102.6,341.86,102.6Zm-75-82.34q0-5.4,2.19-7.77c1.43-1.54,3.92-2.31,7.44-2.31,4.67,0,8.23,1.62,10.71,4.82s3.73,9.06,3.73,17.55c0,5.06-.49,9-1.46,11.81a10.24,10.24,0,0,1-4.75,5.91,13,13,0,0,1-2.81,1H266.84Z"/><path class="cls-1" d="M365.06,19.73a9.25,9.25,0,0,0,4,.7h3.67v5.16h2.93V8.65h-2.93v9H369a4.81,4.81,0,0,1-2.2-.42,2.33,2.33,0,0,1-1.14-1.35,7.2,7.2,0,0,1-.33-2.39V8.65h-2.93v4.86a11,11,0,0,0,.59,4A4,4,0,0,0,365.06,19.73Z"/><path class="cls-1" d="M383.12,25.36A6.93,6.93,0,0,0,386,26a8.2,8.2,0,0,0,3.19-.6,5.56,5.56,0,0,0,2.29-1.77,4,4,0,0,0,.27-.44v2.45h2.94V13.44a4.64,4.64,0,0,0-.83-2.8,5.29,5.29,0,0,0-2.27-1.75,8.84,8.84,0,0,0-3.39-.61,9.87,9.87,0,0,0-3.89.7,14.05,14.05,0,0,0-2.57,1.4l1.43,2.25c.27-.2.65-.44,1.12-.72a8.53,8.53,0,0,1,1.71-.74,7.54,7.54,0,0,1,2.2-.31,4.81,4.81,0,0,1,2.47.64,2.12,2.12,0,0,1,1.08,1.94v2.82a7.36,7.36,0,0,0-1.59-.78,8.11,8.11,0,0,0-2.77-.42,9.61,9.61,0,0,0-3.81.68,5.64,5.64,0,0,0-2.5,1.93,5.24,5.24,0,0,0-.88,3.06,5.09,5.09,0,0,0,.79,2.89A4.93,4.93,0,0,0,383.12,25.36Zm.55-6.51a3.07,3.07,0,0,1,1.45-1.14,6.37,6.37,0,0,1,2.44-.41,9,9,0,0,1,2.89.43,7.58,7.58,0,0,1,1.32.56V19a4.47,4.47,0,0,1-.64,2.54,3.71,3.71,0,0,1-1.78,1.4,7.19,7.19,0,0,1-2.6.44A4.93,4.93,0,0,1,385,23a3,3,0,0,1-1.28-.92,2.34,2.34,0,0,1-.48-1.49A3.17,3.17,0,0,1,383.67,18.85Z"/><path class="cls-1" d="M403,24.81A8.74,8.74,0,0,0,407.47,26a10,10,0,0,0,3.35-.57,5.68,5.68,0,0,0,2.52-1.6V20.1a4.36,4.36,0,0,1-1.25,1.53A6.9,6.9,0,0,1,410,22.77a7.66,7.66,0,0,1-2.55.42,5.52,5.52,0,0,1-3-.79,5.67,5.67,0,0,1-2.06-2.15,6.38,6.38,0,0,1-.75-3.13,6.49,6.49,0,0,1,.75-3.15,5.47,5.47,0,0,1,2.06-2.15,5.6,5.6,0,0,1,3-.78,7.67,7.67,0,0,1,2.55.43,7.08,7.08,0,0,1,2.07,1.12,4.09,4.09,0,0,1,1.25,1.55V10.46a5.7,5.7,0,0,0-2.52-1.61,10,10,0,0,0-3.35-.57A8.74,8.74,0,0,0,403,9.42a8.54,8.54,0,0,0-3.13,3.13,9,9,0,0,0-1.16,4.57,9,9,0,0,0,1.16,4.55A8.42,8.42,0,0,0,403,24.81Z"/><polygon class="cls-1" points="419.57 25.59 422.5 25.59 422.5 11.41 425.99 11.41 425.99 8.65 416.09 8.65 416.09 11.41 419.57 11.41 419.57 25.59"/><polygon class="cls-1" points="432.59 18.04 441.94 18.04 441.94 25.59 444.87 25.59 444.87 8.65 441.94 8.65 441.94 15.28 432.59 15.28 432.59 8.65 429.65 8.65 429.65 25.59 432.59 25.59 432.59 18.04"/><rect class="cls-1" x="466.32" y="8.65" width="2.93" height="16.94"/><path class="cls-1" d="M463.43,23.3a5.21,5.21,0,0,0,.8-3,4.55,4.55,0,0,0-1.78-4,7.3,7.3,0,0,0-4.38-1.27h-4V8.65H451.1V25.59h7a8.48,8.48,0,0,0,3.16-.56A4.66,4.66,0,0,0,463.43,23.3Zm-3.58-.6a4.62,4.62,0,0,1-1.78.31h-4V17.63h4a3.64,3.64,0,0,1,2.42.7,2.49,2.49,0,0,1,.81,2,2.73,2.73,0,0,1-.37,1.46A2.29,2.29,0,0,1,459.85,22.7Z"/><path class="cls-1" d="M479.61,4.4a6.35,6.35,0,0,0,3.21.75,6.33,6.33,0,0,0,3.23-.75A5,5,0,0,0,488,2.45,5.24,5.24,0,0,0,488.62,0H486a3.09,3.09,0,0,1-.25,1.12,2.57,2.57,0,0,1-1,1.14,3.29,3.29,0,0,1-2,.5,3.33,3.33,0,0,1-2-.5,2.61,2.61,0,0,1-.95-1.14A3.13,3.13,0,0,1,479.63,0H477a5.12,5.12,0,0,0,.64,2.45A5,5,0,0,0,479.61,4.4Z"/><polygon class="cls-1" points="486.86 25.59 489.79 25.59 489.79 7.36 478.61 19.63 478.61 8.65 475.67 8.65 475.67 26.87 486.86 14.61 486.86 25.59"/><polygon class="cls-1" points="362.44 70.88 365.74 70.88 376.74 45.85 373.44 45.85 368.8 57.52 364.09 45.85 360.61 45.85 367.06 60.39 362.44 70.88"/><polygon class="cls-1" points="383.16 55.23 392.51 55.23 392.51 62.78 395.44 62.78 395.44 45.85 392.51 45.85 392.51 52.47 383.16 52.47 383.16 45.85 380.22 45.85 380.22 62.78 383.16 62.78 383.16 55.23"/><polygon class="cls-1" points="415.98 62.78 415.98 44.56 404.79 56.82 404.79 45.85 401.86 45.85 401.86 64.07 413.04 51.81 413.04 62.78 415.98 62.78"/><path class="cls-1" d="M425.33,62.78h4.4a5.53,5.53,0,0,0,4.16-1.34,4.6,4.6,0,0,0,1.26-3.26,3.78,3.78,0,0,0-.8-2.58,4.36,4.36,0,0,0-2.2-1.29c-.19-.05-.4-.07-.6-.11a4.64,4.64,0,0,0,2.06-1.38,3.48,3.48,0,0,0,.81-2.37,4.13,4.13,0,0,0-.81-2.67,4.47,4.47,0,0,0-2.1-1.47,8.53,8.53,0,0,0-2.88-.46h-6.24V62.78h2.94Zm6.89-5a2.16,2.16,0,0,1-.79,1.69,3.57,3.57,0,0,1-2.44.7h-3.66V55.49H429a5.49,5.49,0,0,1,1.45.17A2.36,2.36,0,0,1,432,56.89,2.11,2.11,0,0,1,432.22,57.81Zm-3.59-9.39a3.33,3.33,0,0,1,2.09.61,2,2,0,0,1,.77,1.6,2.12,2.12,0,0,1-.2.9,2.37,2.37,0,0,1-1.47,1.26,4,4,0,0,1-1.19.16h-3.3V48.42Z"/><path class="cls-1" d="M450.81,46.55a8,8,0,0,0-4.18-1.07,8.48,8.48,0,0,0-3.9.88,7.64,7.64,0,0,0-2.85,2.47,9,9,0,0,0-1.46,3.68,8.81,8.81,0,0,0-.11.88c0,.3,0,.61,0,.92a9.66,9.66,0,0,0,1.05,4.55A7.93,7.93,0,0,0,442.18,62a7.51,7.51,0,0,0,4.08,1.14,10.73,10.73,0,0,0,3.67-.54,7,7,0,0,0,2.5-1.5,13.23,13.23,0,0,0,1.87-2.27l-2.39-1.51a6.23,6.23,0,0,1-1.32,1.6A5.75,5.75,0,0,1,448.85,60a5.94,5.94,0,0,1-2.22.39,5.69,5.69,0,0,1-2.86-.7,4.63,4.63,0,0,1-1.87-2.06,7.14,7.14,0,0,1-.63-2.58h13.28a2.18,2.18,0,0,0,0-.44v-.44a10,10,0,0,0-1-4.62A7.23,7.23,0,0,0,450.81,46.55Zm-9.46,6a4.82,4.82,0,0,1,2.6-3.87,5.72,5.72,0,0,1,2.68-.62,5,5,0,0,1,2.48.57,4,4,0,0,1,1.57,1.58,6.07,6.07,0,0,1,.72,2.34Z"/><path class="cls-1" d="M472.06,46.55a8.31,8.31,0,0,0-4.2-1.07,6.39,6.39,0,0,0-3.68,1.07,6.66,6.66,0,0,0-2.07,2.24V45.85h-2.94v25h2.94v-11a6.6,6.6,0,0,0,2.07,2.25,6.47,6.47,0,0,0,3.68,1.07,8.41,8.41,0,0,0,4.2-1.07,8,8,0,0,0,3-3,10.44,10.44,0,0,0,0-9.45A8,8,0,0,0,472.06,46.55Zm.4,11.08a5.24,5.24,0,0,1-2.09,2.06,6,6,0,0,1-2.87.7,5.17,5.17,0,0,1-2.53-.7,5.5,5.5,0,0,1-2.06-2.06,7.27,7.27,0,0,1,0-6.63A5.43,5.43,0,0,1,465,48.94a5.07,5.07,0,0,1,2.53-.7,5.89,5.89,0,0,1,2.87.7A5.17,5.17,0,0,1,472.46,51a7.35,7.35,0,0,1,0,6.63Z"/><path class="cls-1" d="M488.07,45.48a8.74,8.74,0,0,0-4.44,1.14,8.4,8.4,0,0,0-3.13,3.13,9.52,9.52,0,0,0,0,9.11A8.38,8.38,0,0,0,483.63,62a8.74,8.74,0,0,0,4.44,1.14,10,10,0,0,0,3.35-.57,5.68,5.68,0,0,0,2.51-1.6V57.3a4.3,4.3,0,0,1-1.24,1.52A6.9,6.9,0,0,1,490.62,60a7.42,7.42,0,0,1-2.55.43,5.61,5.61,0,0,1-2.95-.79,5.7,5.7,0,0,1-2.06-2.16,6.38,6.38,0,0,1-.75-3.13,6.48,6.48,0,0,1,.75-3.14A5.56,5.56,0,0,1,485.12,49a5.69,5.69,0,0,1,2.95-.77,7.66,7.66,0,0,1,2.55.42,7.35,7.35,0,0,1,2.07,1.13,4,4,0,0,1,1.24,1.54V47.65a5.59,5.59,0,0,0-2.51-1.6A10,10,0,0,0,488.07,45.48Z"/><path class="cls-1" d="M509,46.09a8.66,8.66,0,0,0-3.39-.61,9.66,9.66,0,0,0-3.89.7,12.94,12.94,0,0,0-2.57,1.4l1.43,2.24c.27-.19.64-.43,1.12-.72a8.53,8.53,0,0,1,1.71-.73,7.22,7.22,0,0,1,2.2-.31,4.74,4.74,0,0,1,2.47.64,2.1,2.1,0,0,1,1.08,1.93v2.83a7.14,7.14,0,0,0-1.59-.78,7.9,7.9,0,0,0-2.77-.43,9.79,9.79,0,0,0-3.81.68,5.66,5.66,0,0,0-2.5,1.94,5.2,5.2,0,0,0-.88,3.05,4.77,4.77,0,0,0,2.9,4.64,7.06,7.06,0,0,0,2.9.59,8,8,0,0,0,3.19-.61,5.4,5.4,0,0,0,2.29-1.77,4,4,0,0,0,.27-.44v2.45h2.94V50.63a4.69,4.69,0,0,0-.83-2.8A5.19,5.19,0,0,0,509,46.09Zm-.48,12.6a3.66,3.66,0,0,1-1.78,1.4,7,7,0,0,1-2.6.44,4.93,4.93,0,0,1-1.8-.31,2.9,2.9,0,0,1-1.28-.92,2.32,2.32,0,0,1-.48-1.49,3.17,3.17,0,0,1,.48-1.77,3.07,3.07,0,0,1,1.45-1.14,6.35,6.35,0,0,1,2.44-.4,9.25,9.25,0,0,1,2.89.42,8.48,8.48,0,0,1,1.32.57v.66A4.45,4.45,0,0,1,508.51,58.69Z"/><path class="cls-1" d="M518.06,56.89a3.21,3.21,0,0,1-.79,2.5,2.71,2.71,0,0,1-1.88.7v2.69a6.82,6.82,0,0,0,3.15-.64,4,4,0,0,0,1.85-2,7.94,7.94,0,0,0,.61-3.3V48.61h8.61V62.78h2.94V45.85H518.06Z"/><path class="cls-1" d="M550.31,53.52a7.36,7.36,0,0,0-4.38-1.27h-4v-6.4H539V62.78h7a8.48,8.48,0,0,0,3.16-.55,4.79,4.79,0,0,0,2.2-1.73,5.23,5.23,0,0,0,.8-3A4.57,4.57,0,0,0,550.31,53.52ZM548.79,59a2.24,2.24,0,0,1-1.08.92,4.44,4.44,0,0,1-1.78.31h-4V54.83h4a3.59,3.59,0,0,1,2.42.7,2.48,2.48,0,0,1,.81,2A2.7,2.7,0,0,1,548.79,59Z"/><polygon class="cls-1" points="569.69 52.47 560.34 52.47 560.34 45.85 557.41 45.85 557.41 62.78 560.34 62.78 560.34 55.23 569.69 55.23 569.69 62.78 572.63 62.78 572.63 45.85 569.69 45.85 569.69 52.47"/><rect class="cls-1" x="594.08" y="45.85" width="2.93" height="16.93"/><path class="cls-1" d="M590.21,53.52a7.41,7.41,0,0,0-4.38-1.27h-4v-6.4h-2.93V62.78h7a8.46,8.46,0,0,0,3.15-.55,4.74,4.74,0,0,0,2.2-1.73,5.16,5.16,0,0,0,.81-3A4.57,4.57,0,0,0,590.21,53.52ZM588.69,59a2.33,2.33,0,0,1-1.08.92,4.44,4.44,0,0,1-1.78.31h-4V54.83h4a3.6,3.6,0,0,1,2.42.7,2.47,2.47,0,0,1,.8,2A2.79,2.79,0,0,1,588.69,59Z"/><polygon class="cls-1" points="606.36 56.82 606.36 45.85 603.43 45.85 603.43 64.07 614.61 51.81 614.61 62.78 617.55 62.78 617.55 44.56 606.36 56.82"/><path class="cls-1" d="M607.37,41.59a7.2,7.2,0,0,0,6.44,0,5,5,0,0,0,1.92-2,5.06,5.06,0,0,0,.64-2.45h-2.6a3.18,3.18,0,0,1-.26,1.13,2.61,2.61,0,0,1-1,1.14,3.41,3.41,0,0,1-2,.5,3.36,3.36,0,0,1-2-.5,2.54,2.54,0,0,1-1-1.14,3,3,0,0,1-.26-1.13h-2.6a5.06,5.06,0,0,0,.64,2.45A4.85,4.85,0,0,0,607.37,41.59Z"/><polygon class="cls-1" points="360.79 85.8 364.27 85.8 364.27 99.98 367.21 99.98 367.21 85.8 370.69 85.8 370.69 83.04 360.79 83.04 360.79 85.8"/><path class="cls-1" d="M385.43,83.74a8,8,0,0,0-4.18-1.07,8.48,8.48,0,0,0-3.9.89A7.63,7.63,0,0,0,374.5,86,9.16,9.16,0,0,0,373,89.7c-.05.3-.09.59-.11.89a9,9,0,0,0,0,.92,9.69,9.69,0,0,0,1.05,4.55,8,8,0,0,0,2.86,3.14,7.51,7.51,0,0,0,4.08,1.14,10.75,10.75,0,0,0,3.67-.53A7.08,7.08,0,0,0,387,98.3,12.75,12.75,0,0,0,388.92,96l-2.39-1.51a7.09,7.09,0,0,1-1.32,1.6,6,6,0,0,1-1.74,1.07,6.15,6.15,0,0,1-2.22.38,5.59,5.59,0,0,1-2.86-.7,4.58,4.58,0,0,1-1.87-2.06,7.09,7.09,0,0,1-.63-2.58h13.28a2.12,2.12,0,0,0,0-.44v-.44a10,10,0,0,0-1-4.62A7.23,7.23,0,0,0,385.43,83.74Zm-9.46,6a4.92,4.92,0,0,1,.68-2.08,4.84,4.84,0,0,1,1.92-1.78,5.72,5.72,0,0,1,2.68-.63,5,5,0,0,1,2.48.57,4.11,4.11,0,0,1,1.57,1.58,6.18,6.18,0,0,1,.72,2.34Z"/><path class="cls-1" d="M403.71,83.28a8.81,8.81,0,0,0-3.39-.61,9.87,9.87,0,0,0-3.89.7,13.92,13.92,0,0,0-2.56,1.4L395.3,87a12.19,12.19,0,0,1,1.11-.72,8.53,8.53,0,0,1,1.71-.74,7.22,7.22,0,0,1,2.2-.31,4.81,4.81,0,0,1,2.47.64,2.11,2.11,0,0,1,1.09,1.94v2.82a7.7,7.7,0,0,0-1.6-.78,8.11,8.11,0,0,0-2.77-.42,9.64,9.64,0,0,0-3.81.68,5.56,5.56,0,0,0-2.49,1.93,5.16,5.16,0,0,0-.88,3.06,5.09,5.09,0,0,0,.78,2.89,5,5,0,0,0,2.11,1.75,7.09,7.09,0,0,0,2.9.58,8.17,8.17,0,0,0,3.19-.6A5.49,5.49,0,0,0,403.6,98a4.08,4.08,0,0,0,.28-.44V100h2.93V87.83A4.64,4.64,0,0,0,406,85,5.23,5.23,0,0,0,403.71,83.28Zm-.48,12.61a3.69,3.69,0,0,1-1.77,1.4,7.28,7.28,0,0,1-2.61.44,4.84,4.84,0,0,1-1.79-.31,3,3,0,0,1-1.29-.92A2.35,2.35,0,0,1,395.3,95a3.16,3.16,0,0,1,.47-1.77,3.07,3.07,0,0,1,1.45-1.14,6.37,6.37,0,0,1,2.44-.41,9.06,9.06,0,0,1,2.9.43,8.28,8.28,0,0,1,1.32.56v.67A4.49,4.49,0,0,1,403.23,95.89Z"/><polygon class="cls-1" points="409.93 85.8 413.41 85.8 413.41 99.98 416.34 99.98 416.34 85.8 419.83 85.8 419.83 83.04 409.93 83.04 409.93 85.8"/><path class="cls-1" d="M436.2,83.74a8.41,8.41,0,0,0-4.2-1.07,6.47,6.47,0,0,0-3.68,1.07A6.79,6.79,0,0,0,426.24,86V83h-2.93v25h2.93V97a6.77,6.77,0,0,0,2.08,2.26,6.46,6.46,0,0,0,3.68,1.06,8.4,8.4,0,0,0,4.2-1.06,8,8,0,0,0,3-3.06,10.42,10.42,0,0,0,0-9.44A8,8,0,0,0,436.2,83.74Zm.4,11.08a5.17,5.17,0,0,1-2.09,2.06,5.9,5.9,0,0,1-2.88.7,5.12,5.12,0,0,1-2.53-.7,5.48,5.48,0,0,1-2.05-2.06,7.17,7.17,0,0,1,0-6.62,5.58,5.58,0,0,1,2.05-2.07,5.23,5.23,0,0,1,2.53-.7,6,6,0,0,1,2.88.7,5.26,5.26,0,0,1,2.09,2.07,7.33,7.33,0,0,1,0,6.62Z"/></g></g></svg>