<svg width="732" height="310" viewBox="0 0 732 310" fill="none" xmlns="http://www.w3.org/2000/svg">
<g clip-path="url(#clip0_527_2814)">
<path fill-rule="evenodd" clip-rule="evenodd" d="M82.55 130.55C82.02 130.55 81.69 130.74 81.55 131.16C81.3008 131.893 80.8642 132.548 80.2836 133.06C79.7029 133.572 78.9984 133.924 78.24 134.08C75.5601 134.68 72.8146 134.935 70.07 134.84L60.07 135C53.59 135.19 47.45 135.26 41.66 135.26C30.36 135.26 20.49 135.12 12.05 134.84C6.45 134.84 3.65 133.77 3.65 131.58C3.65 131.08 3.38 130.85 2.84 130.85C2.3 130.85 2.04 131.08 2.04 131.58C2.04 134.73 1.79 139.41 1.29 145.66C0.79 151.91 0.4 157 0 160.88C0 161.19 0.25 161.38 0.75 161.42C1.25 161.46 1.53 161.34 1.63 161.04C6.73 145.813 15.1233 138.206 26.81 138.22C29.55 138.22 31.37 138.79 32.25 139.98C33.13 141.17 33.58 143.43 33.58 146.77V215C33.6894 217.231 33.3493 219.462 32.58 221.56C32.2567 222.278 31.7685 222.909 31.1551 223.403C30.5417 223.896 29.8204 224.238 29.05 224.4C26.4677 224.996 23.8186 225.251 21.17 225.16C20.88 225.16 20.73 225.43 20.73 226.05C20.73 226.67 20.88 226.93 21.17 226.93C24.81 226.93 27.65 226.85 29.72 226.77L41.65 226.62L53.86 226.77C55.94 226.85 58.73 226.93 62.26 226.93C62.55 226.93 62.7 226.62 62.7 226.05C62.7 225.48 62.55 225.16 62.26 225.16C59.5714 225.263 56.881 225.008 54.26 224.4C53.5383 224.214 52.869 223.865 52.3037 223.38C51.7384 222.894 51.2924 222.285 51 221.6C50.2907 219.461 49.9855 217.21 50.1 214.96V147C50.1 143.58 50.58 141.24 51.5 140C52.42 138.76 54.34 138.16 57.18 138.16C62.6817 138.044 68.007 140.103 72 143.89C76 147.65 78.76 153.33 80.24 160.89C80.34 161.2 80.63 161.35 81.12 161.35C81.61 161.35 81.85 161.2 81.85 160.89C81.85 156.98 82.03 151.76 82.37 145.28C82.71 138.8 83.04 134.09 83.37 131.17C83.36 130.74 83.09 130.55 82.55 130.55Z" fill="#45342E"/>
<path fill-rule="evenodd" clip-rule="evenodd" d="M147.79 175.49C146.32 175.488 144.882 175.923 143.658 176.738C142.435 177.554 141.481 178.714 140.918 180.072C140.354 181.43 140.206 182.925 140.492 184.367C140.779 185.81 141.487 187.134 142.526 188.174C143.566 189.214 144.891 189.922 146.333 190.208C147.775 190.494 149.27 190.346 150.628 189.783C151.986 189.219 153.146 188.265 153.962 187.042C154.778 185.818 155.212 184.381 155.21 182.91C155.21 180.942 154.428 179.055 153.037 177.664C151.645 176.272 149.758 175.49 147.79 175.49Z" fill="#45342E"/>
<path fill-rule="evenodd" clip-rule="evenodd" d="M125.28 140.52C125.603 139.8 126.079 139.158 126.675 138.64C127.27 138.122 127.972 137.74 128.73 137.52C131.269 136.807 133.906 136.51 136.54 136.64C136.73 136.64 136.82 136.33 136.82 135.75C136.82 135.17 136.73 134.87 136.54 134.87L128.44 135.02C123.53 135.22 119.2 135.29 115.44 135.29C112.68 135.29 109.05 135.22 104.53 135.02L96.59 134.87C96.28 134.87 96.15 135.14 96.15 135.75C96.15 136.36 96.28 136.64 96.59 136.64C99.0467 136.529 101.506 136.799 103.88 137.44C104.583 137.665 105.228 138.039 105.774 138.536C106.319 139.033 106.751 139.641 107.04 140.32C107.742 142.405 108.04 144.604 107.92 146.8V215C108.035 217.222 107.736 219.447 107.04 221.56C106.76 222.254 106.321 222.873 105.758 223.366C105.195 223.859 104.525 224.213 103.8 224.4C101.342 225.01 98.8104 225.269 96.28 225.17C96.09 225.17 96 225.43 96 226.05C96 226.67 96.09 226.93 96.28 226.93C99.73 226.93 102.42 226.85 104.39 226.78L115.39 226.62L128.2 226.78C130.27 226.85 133.01 226.93 136.45 226.93C136.64 226.93 136.73 226.62 136.73 226.05C136.73 225.48 136.64 225.17 136.45 225.17C133.761 225.271 131.07 225.012 128.45 224.4C127.7 224.233 127.002 223.887 126.413 223.393C125.825 222.898 125.364 222.27 125.07 221.56C124.378 219.446 124.08 217.222 124.19 215V147C124.117 144.789 124.487 142.586 125.28 140.52Z" fill="#45342E"/>
<path fill-rule="evenodd" clip-rule="evenodd" d="M498.73 147C498.73 143.58 499.42 141.126 500.8 139.64C502.16 138.18 504.52 137.45 507.86 137.45C512.29 137.45 515.66 138.98 518.02 142.01C520.38 145.04 521.55 150.6 521.55 158.66C521.687 162.443 521.221 166.223 520.17 169.86C519.438 172.234 517.824 174.238 515.66 175.46C514.813 175.898 513.917 176.234 512.99 176.46H498.73V147ZM323.91 176.49L340.22 146.72L345 176.49H323.91ZM569.91 225.13C565.91 225.13 561.783 223.48 557.53 220.18C553.277 216.88 548.433 211.65 543 204.49C537.787 197.63 531.333 188.17 523.64 176.11C527.692 173.726 531.203 170.525 533.95 166.71C536.875 162.772 538.472 158.005 538.51 153.1C538.589 150.353 537.943 147.635 536.636 145.217C535.33 142.8 533.41 140.769 531.07 139.33C526.103 135.996 519.103 134.33 510.07 134.33C507.73 134.33 505.68 134.33 503.97 134.49C502.26 134.65 500.85 134.67 499.77 134.79C496.44 135.06 493.29 135.21 490.34 135.21C487.69 135.21 484.11 135.14 479.6 134.94L471.8 134.79C471.59 134.79 471.49 135.06 471.49 135.67C471.49 136.28 471.59 136.56 471.8 136.56C474.082 136.458 476.365 136.728 478.56 137.36C479.24 137.578 479.86 137.952 480.371 138.452C480.881 138.952 481.268 139.564 481.5 140.24C482.095 142.346 482.348 144.534 482.25 146.72V176.44H420.25V147C420.25 143.89 420.61 141.63 421.34 140.32C422.07 139.01 423.61 138.14 425.91 137.79C429.358 137.392 432.829 137.225 436.3 137.29C443.067 137.29 447.733 138.76 450.3 141.7C452.87 144.7 454.13 149.91 454.13 157.47C454.13 157.66 454.42 157.78 455.02 157.78C455.62 157.78 455.9 157.66 455.9 157.47C455.9 156.28 455.96 154.55 456.05 152.25C456.14 149.95 456.25 147.42 456.34 144.74C456.43 142.06 456.59 139.44 456.78 136.99C456.97 134.54 457.13 132.58 457.22 131.12C457.22 130.7 456.99 130.51 456.49 130.51C455.99 130.51 455.71 130.7 455.61 131.12C455.367 131.893 454.914 132.583 454.301 133.113C453.688 133.643 452.94 133.992 452.14 134.12C449.653 134.648 447.112 134.879 444.57 134.81C440.73 134.81 436.78 134.89 432.71 135C428.64 135.11 423.11 135.23 416.15 135.23C404.817 135.23 394.947 135.09 386.54 134.81C385.48 134.796 384.421 134.719 383.37 134.58C382.252 134.452 381.159 134.156 380.13 133.7C379.704 133.529 379.34 133.231 379.09 132.846C378.839 132.461 378.714 132.009 378.73 131.55C378.73 131.05 378.43 130.82 377.85 130.82C377.27 130.82 376.97 131.05 376.97 131.55C376.97 133.12 376.89 135.12 376.74 137.55C376.59 139.98 376.41 142.46 376.22 145.07C376.03 147.68 375.8 150.07 375.57 152.36C375.34 154.65 375.09 156.31 374.9 157.5C374.9 157.69 375.2 157.81 375.78 157.81C376.36 157.81 376.66 157.69 376.66 157.5C377.753 149.94 379.697 144.683 382.49 141.73C385.29 138.73 389.78 137.32 395.95 137.32C399.444 137.268 402.939 137.398 406.42 137.71C408.78 137.94 410.34 138.71 411.14 140.05C411.94 141.39 412.31 143.61 412.31 146.76V176.48H353.71L346.84 133.64C346.75 133.34 346.33 133.14 345.6 132.99C344.87 132.84 344.39 132.99 344.2 133.34L320.09 176.48H273C273.207 175.486 273.417 174.516 273.63 173.57C274.03 171.8 274.47 169.39 274.97 166.32C275.07 165.86 274.82 165.59 274.22 165.51C273.63 165.51 273.28 165.71 273.22 166.21C272.34 170.116 270.793 172.913 268.58 174.6C267.347 175.491 265.95 176.13 264.47 176.48H240.86L246.09 146.91C246.404 144.846 246.979 142.829 247.8 140.91C248.076 140.276 248.488 139.71 249.007 139.253C249.525 138.795 250.137 138.456 250.8 138.26C252.867 137.734 255 137.515 257.13 137.61H263.13C268.04 137.61 271.97 139.18 274.92 142.37C277.87 145.56 279.33 149.88 279.33 155.25C279.33 155.48 279.6 155.64 280.14 155.79C280.68 155.94 281 155.79 281.14 155.41C281.42 153.95 281.75 152.07 282.14 149.73C282.53 147.39 282.84 145.05 283.25 142.6C283.66 140.15 283.98 138 284.25 136.11C284.46 135.23 284.16 134.81 283.37 134.81H225.92C225.73 134.81 225.63 135.08 225.63 135.69C225.63 136.3 225.73 136.58 225.92 136.58C229.92 136.58 232.44 137.19 233.44 138.49C234.44 139.79 234.51 142.49 233.72 146.74L228.46 176.46H188.24V146.77C188.132 144.58 188.403 142.388 189.04 140.29C189.324 139.594 189.764 138.973 190.326 138.474C190.887 137.974 191.556 137.611 192.28 137.41C194.707 136.778 197.214 136.508 199.72 136.61C200.01 136.61 200.16 136.3 200.16 135.72C200.16 135.14 200.01 134.84 199.72 134.84L191.48 134.99C186.57 135.19 182.79 135.26 180.12 135.26C176.21 135.26 171.78 135.19 166.87 134.99L159.66 134.84C159.37 134.84 159.22 135.11 159.22 135.72C159.22 136.33 159.37 136.61 159.66 136.61C163.29 136.61 165.95 136.87 167.66 137.49C168.413 137.703 169.108 138.084 169.693 138.603C170.278 139.123 170.739 139.768 171.04 140.49C171.73 142.591 172.029 144.801 171.92 147.01V215C172.039 217.248 171.74 219.5 171.04 221.64C170.729 222.331 170.262 222.94 169.676 223.419C169.089 223.898 168.399 224.234 167.66 224.4C165.04 225.012 162.349 225.271 159.66 225.17C159.37 225.17 159.22 225.43 159.22 226.05C159.22 226.67 159.37 226.93 159.66 226.93C162.71 226.93 165.11 226.85 166.87 226.78L180.12 226.62L191.48 226.78C193.53 226.85 196.29 226.93 199.72 226.93C200.01 226.93 200.16 226.62 200.16 226.05C200.16 225.48 200.01 225.17 199.72 225.17C197.193 225.267 194.665 225.008 192.21 224.4C191.49 224.221 190.825 223.868 190.272 223.373C189.72 222.878 189.297 222.256 189.04 221.56C188.407 219.433 188.137 217.216 188.24 215V181.44H227.58L221.64 215C221.33 217.225 220.738 219.403 219.88 221.48C219.581 222.17 219.137 222.788 218.578 223.292C218.019 223.796 217.358 224.174 216.64 224.4C214.583 224.983 212.447 225.243 210.31 225.17C210.02 225.17 209.87 225.43 209.87 226.05C209.87 226.67 210.02 226.93 210.31 226.93H271C272.29 226.93 273.07 226.2 273.36 224.7C273.96 221.48 274.68 217.95 275.57 214.12C276.46 210.29 277.29 206.99 278.08 204.22C278.27 204.03 278.08 203.88 277.56 203.73C277.04 203.58 276.66 203.65 276.45 203.95C273.72 209.643 269.716 214.631 264.75 218.53C259.98 222.17 255.05 223.97 249.95 223.97H241.84C238.02 223.97 235.6 223.4 234.63 222.21C233.66 221.02 233.49 218.42 234.18 214.39L240 181.44H262.32C264.048 181.805 265.631 182.671 266.87 183.93C268.73 185.93 269.29 189.19 268.5 193.6C268.38 193.98 268.63 194.21 269.23 194.25C269.83 194.29 270.17 194.14 270.23 193.75C270.71 190.99 271.12 188.42 271.4 186.08C271.61 184.54 271.83 182.99 272.06 181.44H317.31L302.05 208.75C298.42 215.15 294.95 219.45 291.67 221.75C288.39 224.05 285.46 225.16 282.91 225.16C282.51 225.16 282.32 225.43 282.32 226.05C282.32 226.67 282.51 226.93 282.91 226.93C285.101 226.939 287.29 226.836 289.47 226.62C291.797 226.401 294.133 226.3 296.47 226.32C299.13 226.32 301.86 226.43 304.66 226.62C307.46 226.81 309.83 226.93 311.79 226.93C312.29 226.93 312.54 226.62 312.54 226.05C312.54 225.48 312.33 225.16 311.94 225.16C309.415 225.301 306.893 224.842 304.58 223.82C302.91 222.94 302.2 221.21 302.45 218.68C302.7 216.15 304.18 212.39 306.94 207.49L321.19 181.49H345.81L351.12 214.55C351.72 218.69 351.43 221.49 350.32 222.95C349.21 224.41 346.32 225.17 341.69 225.17C341.4 225.17 341.25 225.44 341.25 226.06C341.25 226.68 341.4 226.94 341.69 226.94C344.05 226.94 346.31 226.82 348.47 226.63C350.63 226.44 353.13 226.33 355.97 226.33C358.81 226.33 361.46 226.44 363.85 226.63C366.24 226.82 368.59 226.94 370.85 226.94C371.24 226.94 371.45 226.63 371.45 226.06C371.45 225.49 371.24 225.17 370.85 225.17C368.672 225.252 366.499 224.912 364.45 224.17C363.021 223.505 361.912 222.306 361.36 220.83C360.59 218.79 360.069 216.665 359.81 214.5L354.51 181.44H412.28V215C412.4 217.216 412.021 219.43 411.17 221.48C410.72 222.268 410.095 222.941 409.342 223.448C408.589 223.954 407.729 224.28 406.83 224.4C403.68 224.995 400.475 225.253 397.27 225.17C397.05 225.17 396.96 225.43 396.96 226.05C396.96 226.67 397.05 226.93 397.27 226.93C399.91 226.93 402.83 226.85 406.03 226.78C409.23 226.71 412.57 226.62 416.12 226.62C419.84 226.62 423.31 226.62 426.49 226.78C429.67 226.94 432.55 226.93 435.1 226.93C435.31 226.93 435.41 226.62 435.41 226.05C435.41 225.48 435.31 225.17 435.1 225.17C431.865 225.259 428.63 225 425.45 224.4C424.57 224.278 423.73 223.95 423.001 223.442C422.271 222.935 421.671 222.263 421.25 221.48C420.482 219.41 420.142 217.205 420.25 215V181.44H482.25V215C482.352 217.216 482.078 219.434 481.44 221.56C481.202 222.23 480.812 222.835 480.3 223.328C479.788 223.821 479.168 224.188 478.49 224.4C476.26 225.009 473.949 225.269 471.64 225.17C471.36 225.17 471.2 225.43 471.2 226.05C471.2 226.67 471.36 226.93 471.64 226.93C474.98 226.93 477.64 226.85 479.64 226.78L490.38 226.62L501.58 226.78C503.44 226.85 505.99 226.93 509.23 226.93C509.44 226.93 509.54 226.62 509.54 226.05C509.54 225.48 509.44 225.17 509.23 225.17C506.921 225.269 504.61 225.009 502.38 224.4C501.719 224.197 501.114 223.842 500.616 223.362C500.117 222.883 499.738 222.293 499.51 221.64C498.931 219.476 498.685 217.237 498.78 215V181.44H510.64C518.64 195.36 525.49 206.29 531.19 214.23C537.27 222.67 541.443 226.89 543.71 226.89H569.92C570.11 226.89 570.21 226.58 570.21 226.01C570.21 225.44 570.06 225.13 569.87 225.13H569.91Z" fill="#45342E"/>
<path fill-rule="evenodd" clip-rule="evenodd" d="M727.17 135C725.75 135.07 723.95 135.11 721.8 135.11C720.23 135.11 718.47 135.11 716.49 135C714.51 134.89 713.12 134.84 712.23 134.84C711.054 134.826 709.901 135.171 708.926 135.829C707.951 136.486 707.199 137.425 706.77 138.52L675.27 203.28L662.45 142.47C662.09 140.327 661.416 138.248 660.45 136.3C660.184 135.856 659.808 135.488 659.357 135.232C658.907 134.976 658.398 134.841 657.88 134.84C656.78 134.84 655.15 134.84 652.93 135C650.71 135.16 648.25 135.11 645.51 135.11C643.51 135.11 641.77 135.11 640.2 135C638.92 134.9 637.78 134.86 636.76 134.85H636.05C634.55 134.85 632.9 134.93 631.05 135.03C628.94 135.19 626.8 135.26 624.65 135.26C622.08 135.26 619.76 135.19 617.65 135.03C615.54 134.87 613.45 134.84 611.38 134.84C611.09 134.84 610.94 135.11 610.94 135.72C610.94 136.33 611.09 136.6 611.38 136.6C615.21 136.6 617.86 137.76 619.38 140.06C620.9 142.36 621.2 145.89 620.38 150.6L615.38 171.6C613.693 181.107 610.08 188.65 604.54 194.23C601.883 196.927 598.702 199.052 595.195 200.476C591.687 201.9 587.925 202.592 584.14 202.51C576.29 202.51 570.43 199.67 566.55 193.92C562.67 188.17 561.76 179.5 563.83 167.92L568.83 147.39C569.156 145.101 569.802 142.869 570.75 140.76C571.13 139.989 571.665 139.304 572.323 138.75C572.98 138.196 573.745 137.784 574.57 137.54C577.01 136.847 579.545 136.547 582.08 136.65C582.49 136.65 582.68 136.35 582.68 135.77C582.68 135.19 582.49 134.89 582.08 134.89C580.08 134.89 577.81 134.97 575.16 135.08C572.51 135.19 569.62 135.31 566.47 135.31C563.62 135.31 560.88 135.24 558.23 135.08C555.58 134.92 553.17 134.89 551.02 134.89C550.71 134.89 550.58 135.16 550.58 135.77C550.58 136.38 550.71 136.65 551.02 136.65C555.72 136.65 558.67 137.23 559.84 138.42C561.01 139.61 561.22 142.33 560.43 146.67L554.53 172.48C553.34 179.54 553.61 185.67 555.33 190.81C556.855 195.727 560.063 199.951 564.39 202.74C568.7 205.54 574.11 206.96 580.59 206.96C586.675 207.04 592.689 205.647 598.12 202.9C603.429 200.096 607.939 195.992 611.23 190.97C614.965 185.188 617.474 178.701 618.6 171.91L623.33 151.23C624.22 146.51 625.75 142.91 627.96 140.41C629.013 139.211 630.314 138.256 631.773 137.61C633.232 136.964 634.815 136.643 636.41 136.67C637.886 136.718 639.352 136.933 640.78 137.31C642.573 137.847 644.199 138.835 645.5 140.18C645.926 140.62 646.305 141.102 646.63 141.62L634.15 208.22C633.15 213.44 631.4 217.54 628.85 220.61C626.3 223.68 623.35 225.17 620.01 225.17C619.71 225.17 619.57 225.44 619.57 226.06C619.57 226.68 619.71 226.94 620.01 226.94C622.01 226.94 624.01 226.86 626.13 226.79C628.25 226.72 630.41 226.63 632.67 226.63C635.34 226.63 637.75 226.63 639.98 226.79C642.21 226.95 644.16 226.94 645.98 226.94C646.27 226.94 646.42 226.63 646.42 226.06C646.42 225.49 646.27 225.17 645.98 225.17C644.462 225.239 642.961 224.828 641.69 223.995C640.419 223.162 639.443 221.95 638.9 220.53C637.52 217.43 637.33 213.17 638.31 207.8L649 148.4L665.22 225.7C665.325 225.897 665.483 226.062 665.675 226.177C665.867 226.291 666.086 226.351 666.31 226.35C666.526 226.403 666.753 226.383 666.956 226.292C667.158 226.202 667.325 226.046 667.43 225.85L707.27 144.85L696.91 215C696.671 217.226 696.123 219.407 695.28 221.48C695.002 222.159 694.582 222.77 694.05 223.273C693.517 223.777 692.883 224.161 692.19 224.4C690.189 224.993 688.105 225.253 686.02 225.17C685.71 225.17 685.58 225.43 685.58 226.05C685.58 226.67 685.71 226.93 686.02 226.93C688.26 226.93 690.78 226.85 693.52 226.78C696.26 226.71 699.21 226.62 702.36 226.62C705.51 226.62 708.48 226.62 711.28 226.78C714.08 226.94 716.55 226.93 718.72 226.93C719 226.93 719.16 226.62 719.16 226.05C719.16 225.48 719 225.17 718.72 225.17C715.07 225.17 712.79 224.51 711.85 223.25C710.91 221.99 710.76 219.25 711.35 215L721.52 146.5C722.09 142.4 723.19 139.71 724.74 138.5C726.29 137.29 728.57 136.66 731.53 136.66L727.17 135Z" fill="#45342E"/>
<path fill-rule="evenodd" clip-rule="evenodd" d="M37.64 1.83008V4.45008C35.4177 4.43722 33.2072 4.77469 31.09 5.45008C30.383 5.70903 29.7449 6.12678 29.2248 6.67117C28.7047 7.21555 28.3165 7.87204 28.09 8.59008C27.4724 10.9173 27.2095 13.3244 27.31 15.7301V80.6301C27.2174 83.0124 27.4803 85.3952 28.09 87.7001C28.3014 88.4258 28.6843 89.0899 29.2065 89.6365C29.7287 90.183 30.3747 90.5958 31.09 90.8401C33.2193 91.4625 35.422 91.7988 37.64 91.8401V94.4601C35.54 94.2801 32.9 94.1701 29.72 94.1301C26.54 94.0901 23.3 94.0867 20 94.1201C16.3333 94.1201 12.9067 94.1401 9.71999 94.1801C6.52999 94.1801 3.93999 94.3301 1.92999 94.5101V91.8901C4.19113 91.8542 6.43747 91.5179 8.60999 90.8901C9.32189 90.6513 9.96327 90.2394 10.4765 89.6913C10.9897 89.1432 11.3586 88.4761 11.55 87.7501C12.1137 85.4377 12.356 83.0586 12.27 80.6801V15.7101C12.3634 13.3082 12.121 10.905 11.55 8.57008C11.3378 7.84475 10.9546 7.18098 10.4326 6.63456C9.91051 6.08815 9.26489 5.67507 8.54999 5.43008C6.41114 4.75904 4.18162 4.42174 1.93999 4.43008V1.83008C3.93999 1.92008 6.53999 2.01008 9.72999 2.09008C12.92 2.17008 16.34 2.23008 20.01 2.23008C23.3433 2.23008 26.5933 2.18341 29.76 2.09008C32.9267 1.99674 35.5667 1.91008 37.68 1.83008H37.64ZM34.76 45.1601H24.55V47.6501H33.71C38.07 47.6501 41.39 48.3201 43.66 49.6501C45.9101 51.0007 47.6639 53.0421 48.66 55.4701C49.8835 58.4279 50.8244 61.4949 51.47 64.6301L55.05 82.2001C56.27 87.9601 58.21 91.7567 60.87 93.5901C63.674 95.4635 66.9888 96.424 70.36 96.3401C73.4717 96.4809 76.5591 95.7317 79.26 94.1801C81.6751 92.5921 83.7629 90.5553 85.41 88.1801L83.58 86.7401C82.7067 87.8605 81.7216 88.8892 80.64 89.8101C79.644 90.5808 78.4289 91.015 77.17 91.0501C76.3524 91.1012 75.5377 90.9115 74.8268 90.5045C74.1159 90.0975 73.5399 89.491 73.17 88.7601C71.9986 86.2058 71.1391 83.5198 70.61 80.7601L66.83 63.8801C65.69 58.7267 63.6167 54.8201 60.61 52.1601C57.4269 49.4138 53.5963 47.5243 49.48 46.6701C44.6454 45.6166 39.7077 45.11 34.76 45.1601ZM27.16 47.6501H37.9L64.34 14.9201C66.6931 11.9791 69.5264 9.45691 72.72 7.46008C75.2558 5.95558 78.0504 4.93812 80.96 4.46008V1.83008C78.17 2.09008 74.33 2.23008 69.44 2.23008C66.6533 2.23008 63.9067 2.18341 61.2 2.09008L53 1.83008V4.45008C56.58 4.53674 59.0233 5.28008 60.33 6.68008C61.6367 8.08008 61.8567 10.1067 60.99 12.7601C60.11 15.4267 58.1467 18.6334 55.1 22.3801L44.18 36.1301C42.073 38.6919 39.5514 40.8823 36.72 42.6101C33.8089 44.2759 30.514 45.1548 27.16 45.1601V47.6501ZM128.22 1.83008V4.45008C125.998 4.43722 123.787 4.77469 121.67 5.45008C120.966 5.71422 120.331 6.13372 119.811 6.67737C119.292 7.22102 118.902 7.87481 118.67 8.59008C118.052 10.9173 117.789 13.3244 117.89 15.7301V80.6301C117.797 83.0124 118.06 85.3952 118.67 87.7001C118.883 88.425 119.266 89.0884 119.788 89.6347C120.31 90.181 120.956 90.5943 121.67 90.8401C123.799 91.4625 126.002 91.7988 128.22 91.8401V94.4601C126.12 94.2801 123.48 94.1701 120.3 94.1301C117.12 94.0901 113.87 94.0701 110.55 94.0701C106.88 94.0701 103.46 94.0701 100.27 94.1301C97.08 94.1901 94.49 94.2801 92.48 94.4601V91.8901C94.7174 91.8447 96.9393 91.5086 99.09 90.8901C99.813 90.6598 100.467 90.2516 100.991 89.703C101.515 89.1544 101.893 88.4828 102.09 87.7501C102.654 85.4377 102.896 83.0586 102.81 80.6801V15.7101C102.903 13.3082 102.661 10.905 102.09 8.57008C101.878 7.84475 101.495 7.18098 100.973 6.63456C100.451 6.08815 99.8049 5.67507 99.09 5.43008C96.9514 4.7581 94.7217 4.42078 92.48 4.43008V1.83008C94.48 1.91674 97.0767 2.00341 100.27 2.09008C103.46 2.18008 106.88 2.23008 110.55 2.23008C113.883 2.23008 117.133 2.18341 120.3 2.09008C123.467 1.99674 126.107 1.91008 128.22 1.83008ZM162.77 10.0001L113 84.8201L113.13 89.8201L162.61 15.6001V14.1401C162.61 13.1401 162.61 12.2401 162.68 11.3201L162.74 9.95008L162.77 10.0001ZM185.77 1.88008V4.45008C183.551 4.43576 181.343 4.77328 179.23 5.45008C178.522 5.7077 177.883 6.125 177.363 6.66958C176.843 7.21415 176.455 7.87133 176.23 8.59008C175.603 10.9156 175.337 13.3237 175.44 15.7301V80.6301C175.345 83.0131 175.611 85.3969 176.23 87.7001C176.44 88.4265 176.822 89.0915 177.345 89.6382C177.867 90.185 178.514 90.5973 179.23 90.8401C181.356 91.4632 183.555 91.7995 185.77 91.8401V94.4601C183.85 94.2801 181.277 94.1701 178.05 94.1301C174.823 94.0901 171.377 94.0701 167.71 94.0701C164.57 94.0701 161.363 94.0901 158.09 94.1301C154.82 94.1301 152.09 94.2801 150.09 94.4601V91.8901C152.305 91.8495 154.504 91.5132 156.63 90.8901C157.346 90.6473 157.993 90.235 158.515 89.6882C159.038 89.1415 159.42 88.4765 159.63 87.7501C160.249 85.4469 160.515 83.0631 160.42 80.6801V15.7101C160.523 13.3037 160.257 10.8956 159.63 8.57008C159.405 7.85133 159.017 7.19415 158.497 6.64958C157.977 6.105 157.338 5.6877 156.63 5.43008C154.517 4.75328 152.309 4.41576 150.09 4.43008V1.83008C152.18 1.92008 154.87 2.01008 158.09 2.09008C161.31 2.17008 164.57 2.23008 167.71 2.23008C171.37 2.23008 174.817 2.18341 178.05 2.09008C181.283 1.99674 183.857 1.91008 185.77 1.83008V1.88008ZM251 94.5101V91.8901C253.261 91.8542 255.507 91.5179 257.68 90.8901C258.392 90.6513 259.033 90.2394 259.546 89.6913C260.06 89.1432 260.429 88.4761 260.62 87.7501C261.184 85.4377 261.426 83.0586 261.34 80.6801V15.7101C261.433 13.3082 261.191 10.905 260.62 8.57008C260.408 7.84475 260.025 7.18098 259.503 6.63456C258.981 6.08815 258.335 5.67507 257.62 5.43008C255.481 4.75904 253.252 4.42174 251.01 4.43008V1.83008C253.19 1.91674 255.917 2.00341 259.19 2.09008C262.463 2.17674 265.713 2.22341 268.94 2.23008C272.613 2.23008 276.017 2.18341 279.15 2.09008C282.29 2.01008 284.83 1.92008 286.75 1.83008V4.45008C284.528 4.43638 282.317 4.77388 280.2 5.45008C279.493 5.70903 278.855 6.12678 278.335 6.67117C277.815 7.21555 277.426 7.87204 277.2 8.59008C276.578 10.9166 276.312 13.3239 276.41 15.7301V80.6301C276.32 83.0129 276.586 85.3959 277.2 87.7001C277.411 88.4258 277.794 89.0899 278.316 89.6365C278.839 90.183 279.485 90.5958 280.2 90.8401C282.329 91.4625 284.532 91.7988 286.75 91.8401V94.4601C284.83 94.2801 282.29 94.1701 279.15 94.1301C276.01 94.0901 272.61 94.0701 268.94 94.0701C265.707 94.0701 262.457 94.0901 259.19 94.1301C255.923 94.1701 253.197 94.2801 251.01 94.4601L251 94.5101ZM196 94.5101V91.8901C198.261 91.8551 200.508 91.5188 202.68 90.8901C203.392 90.6513 204.033 90.2394 204.546 89.6913C205.06 89.1432 205.429 88.4761 205.62 87.7501C206.184 85.4377 206.426 83.0586 206.34 80.6801V15.7101C206.433 13.3082 206.191 10.905 205.62 8.57008C205.408 7.84475 205.025 7.18098 204.503 6.63456C203.981 6.08815 203.335 5.67507 202.62 5.43008C200.481 4.7581 198.252 4.42078 196.01 4.43008V1.83008C198.01 1.91674 200.607 2.00341 203.8 2.09008C206.99 2.18008 210.41 2.23008 214.08 2.23008C217.413 2.23008 220.663 2.18341 223.83 2.09008C226.997 1.99674 229.637 1.91008 231.75 1.83008V4.45008C229.528 4.43722 227.317 4.77469 225.2 5.45008C224.496 5.71422 223.861 6.13372 223.341 6.67737C222.822 7.22102 222.432 7.87481 222.2 8.59008C221.582 10.9173 221.319 13.3244 221.42 15.7301V80.6301C221.327 83.0124 221.59 85.3952 222.2 87.7001C222.413 88.425 222.796 89.0884 223.318 89.6347C223.84 90.181 224.486 90.5943 225.2 90.8401C227.329 91.4625 229.532 91.7988 231.75 91.8401V94.4601C229.65 94.2801 227.01 94.1701 223.83 94.1301C220.65 94.0901 217.4 94.0701 214.08 94.0701C210.41 94.0701 206.99 94.0701 203.8 94.1301C200.61 94.1901 198.02 94.2801 196.01 94.4601L196 94.5101ZM215.51 49.2201H267.21V46.6001H215.51V49.2201Z" fill="#45342E"/>
<path d="M638.98 45.4004H219.96V50.3504H638.98V45.4004Z" fill="#45342E"/>
<path fill-rule="evenodd" clip-rule="evenodd" d="M682.05 -4.34089e-05C689.943 -0.165274 697.738 1.77821 704.63 5.62996C711.154 9.40672 716.415 15.0294 719.75 21.79C723.323 28.8233 725.11 37.3566 725.11 47.39C725.11 57.1566 723.28 65.7066 719.62 73.04C716.218 80.0768 710.91 86.0185 704.3 90.19C697.582 94.3386 689.815 96.473 681.92 96.34C673.253 96.34 665.703 94.4633 659.27 90.71C652.78 86.8965 647.561 81.2501 644.27 74.48C640.657 67.4066 638.85 58.9133 638.85 49C638.85 39.22 640.703 30.6666 644.41 23.34C647.824 16.3221 653.099 10.376 659.66 6.14996C666.372 1.97843 674.149 -0.157794 682.05 -4.34089e-05ZM681.52 2.35996C678.89 2.3395 676.282 2.85067 673.854 3.86281C671.426 4.87494 669.227 6.36717 667.39 8.24996C663.39 12.17 660.29 17.58 658.09 24.48C655.781 32.2661 654.678 40.3599 654.82 48.48C654.82 57.7333 656.043 65.7833 658.49 72.63C660.937 79.4766 664.25 84.7566 668.43 88.47C672.228 92.0225 677.229 94.0085 682.43 94.03C685.052 94.0539 687.652 93.544 690.071 92.5314C692.489 91.5189 694.677 90.0247 696.5 88.14C700.5 84.22 703.6 78.79 705.8 71.85C708.136 64.1061 709.259 56.0474 709.13 47.96C709.13 38.6266 707.887 30.5533 705.4 23.74C702.913 16.9266 699.6 11.6533 695.46 7.91996C691.691 4.35917 686.705 2.3706 681.52 2.35996Z" fill="#45342E"/>
<path fill-rule="evenodd" clip-rule="evenodd" d="M14.34 308.8V300.44C12.5289 300.469 10.7253 300.202 9.00001 299.65C7.55764 299.18 6.2364 298.398 5.13001 297.36C4.06037 296.324 3.25159 295.05 2.77001 293.64C2.22323 292.031 1.95604 290.34 1.98001 288.64V287.76C1.94988 286.113 2.2175 284.473 2.77001 282.92C3.27015 281.552 4.07753 280.317 5.13001 279.31C6.2308 278.26 7.55334 277.471 9.00001 277C10.7277 276.461 12.5304 276.201 14.34 276.23V269.23H18.22V276.23C20.0297 276.201 21.8323 276.461 23.56 277C25.0021 277.456 26.3243 278.228 27.43 279.26C28.4825 280.267 29.2899 281.502 29.79 282.87C30.3425 284.423 30.6101 286.063 30.58 287.71V288.59C30.604 290.29 30.3368 291.981 29.79 293.59C29.3084 295 28.4997 296.274 27.43 297.31C26.3236 298.348 25.0024 299.13 23.56 299.6C21.8348 300.152 20.0311 300.419 18.22 300.39V308.75L14.34 308.8ZM18.17 296.92C21.11 296.92 23.2533 296.254 24.6 294.92C25.9467 293.587 26.6133 291.49 26.6 288.63V287.75C26.6 285.084 25.9333 283.084 24.6 281.75C23.2667 280.417 21.1233 279.75 18.17 279.75V296.91V296.92ZM14.39 296.92V279.76C11.45 279.76 9.30668 280.427 7.96001 281.76C6.61334 283.094 5.94668 285.094 5.96001 287.76V288.64C5.96001 291.487 6.62668 293.584 7.96001 294.93C9.29334 296.277 11.4367 296.944 14.39 296.93V296.92ZM45.76 300.44C44.3068 300.446 42.8631 300.206 41.49 299.73C40.1577 299.279 38.942 298.538 37.93 297.56C36.8579 296.505 36.0168 295.238 35.46 293.84C34.8162 292.156 34.5038 290.363 34.54 288.56V287.68C34.5042 285.972 34.8032 284.274 35.42 282.68C35.951 281.345 36.7509 280.133 37.77 279.12C38.7487 278.167 39.9223 277.437 41.21 276.98C42.5287 276.509 43.9197 276.272 45.32 276.28C48.75 276.28 51.41 277.22 53.32 279.09C55.23 280.96 56.14 283.63 56.14 287.09V289.55H38.41C38.3784 290.738 38.6035 291.918 39.07 293.01C39.4628 293.9 40.0507 294.689 40.79 295.32C41.4805 295.897 42.2796 296.329 43.14 296.59C43.988 296.856 44.8715 296.991 45.76 296.99C47.1715 297.073 48.5789 296.769 49.83 296.11C50.7579 295.548 51.4774 294.698 51.88 293.69H55.66C55.4514 294.75 55.0258 295.754 54.41 296.64C53.8134 297.479 53.0677 298.201 52.21 298.77C51.2881 299.365 50.2746 299.805 49.21 300.07C48.0672 300.367 46.8908 300.515 45.71 300.51L45.76 300.44ZM38.41 286.31H52.41C52.4114 285.264 52.2075 284.228 51.81 283.26C51.4842 282.487 50.9806 281.802 50.34 281.26C49.6991 280.74 48.9566 280.358 48.16 280.14C47.2932 279.904 46.3984 279.786 45.5 279.79C44.6068 279.786 43.7177 279.911 42.86 280.16C42.0309 280.4 41.2589 280.805 40.59 281.35C39.9171 281.912 39.3717 282.611 38.99 283.4C38.5569 284.319 38.3446 285.326 38.37 286.34L38.41 286.31ZM70.62 300.44C69.1938 300.455 67.777 300.207 66.44 299.71C65.1703 299.248 64.0264 298.494 63.1 297.51C62.1061 296.439 61.3466 295.172 60.87 293.79C60.2994 292.107 60.0254 290.338 60.06 288.56V287.68C60.0219 285.972 60.3209 284.273 60.94 282.68C61.4676 281.348 62.2603 280.137 63.27 279.12C64.2352 278.189 65.3826 277.467 66.64 277C67.9182 276.518 69.2739 276.274 70.64 276.28C71.9031 276.262 73.1604 276.455 74.36 276.85C75.4009 277.2 76.3698 277.736 77.22 278.43C78.0213 279.1 78.6983 279.906 79.22 280.81C79.7433 281.748 80.1209 282.759 80.34 283.81H76.34C76.1144 283.269 75.8435 282.747 75.53 282.25C75.2255 281.765 74.8359 281.338 74.38 280.99C73.9043 280.626 73.37 280.345 72.8 280.16C71.2787 279.701 69.6484 279.753 68.16 280.31C67.3543 280.592 66.6179 281.042 66 281.63C65.3452 282.332 64.8444 283.163 64.53 284.07C64.1356 285.232 63.9494 286.454 63.98 287.68V288.56C63.9504 289.865 64.1363 291.166 64.53 292.41C64.8352 293.366 65.3358 294.248 66 295C66.5868 295.642 67.3118 296.141 68.12 296.46C68.905 296.763 69.7388 296.919 70.58 296.92C71.8726 296.968 73.1459 296.596 74.21 295.86C75.2017 295.145 75.9349 294.128 76.3 292.96H80.3C80.0564 294.06 79.6233 295.109 79.02 296.06C78.4568 296.965 77.7353 297.761 76.89 298.41C76.0363 299.07 75.0756 299.577 74.05 299.91C72.9426 300.271 71.7844 300.45 70.62 300.44ZM90.9 300V280.11H82.9V276.68H102.7V280.11H94.7V300H90.9ZM107.14 300V276.68H111V294.28L123.06 276.68H126.93V300H123.06V282.4L111 300H107.14ZM134 300V276.68H144.1C145.362 276.656 146.621 276.811 147.84 277.14C148.789 277.395 149.674 277.845 150.44 278.46C151.091 279.002 151.608 279.686 151.95 280.46C152.297 281.276 152.471 282.154 152.46 283.04C152.459 283.565 152.371 284.085 152.2 284.58C152.025 285.074 151.779 285.539 151.47 285.96C151.156 286.391 150.786 286.778 150.37 287.11C149.942 287.448 149.458 287.709 148.94 287.88C150.234 288.143 151.394 288.851 152.22 289.88C152.972 290.871 153.367 292.087 153.34 293.33C153.381 294.234 153.224 295.136 152.878 295.973C152.532 296.809 152.007 297.559 151.34 298.17C150 299.4 147.85 300 145 300H134ZM137.87 296.57H145C146.233 296.69 147.47 296.379 148.5 295.69C148.84 295.37 149.105 294.98 149.278 294.546C149.451 294.113 149.526 293.646 149.5 293.18C149.529 292.704 149.454 292.227 149.282 291.781C149.109 291.336 148.842 290.933 148.5 290.6C147.477 289.895 146.236 289.576 145 289.7H137.87V296.57ZM137.87 286.57H144.12C144.836 286.587 145.552 286.513 146.25 286.35C146.759 286.244 147.236 286.018 147.64 285.69C147.973 285.428 148.231 285.083 148.39 284.69C148.541 284.243 148.616 283.773 148.61 283.3C148.614 282.851 148.539 282.404 148.39 281.98C148.243 281.581 147.982 281.233 147.64 280.98C147.223 280.682 146.75 280.472 146.25 280.36C145.552 280.198 144.836 280.124 144.12 280.14H137.87V286.56V286.57ZM165.5 300.48C164.35 300.501 163.205 300.314 162.12 299.93C161.186 299.605 160.331 299.087 159.61 298.41C158.934 297.77 158.408 296.988 158.07 296.12C157.71 295.196 157.53 294.212 157.54 293.22C157.513 292.195 157.693 291.175 158.07 290.22C158.402 289.437 158.924 288.75 159.59 288.22C160.322 287.658 161.169 287.262 162.07 287.06C163.18 286.796 164.319 286.668 165.46 286.68H173V285C173.02 284.152 172.909 283.305 172.67 282.49C172.484 281.87 172.139 281.308 171.67 280.86C171.188 280.447 170.616 280.152 170 280C169.237 279.818 168.454 279.731 167.67 279.74C166.951 279.729 166.235 279.817 165.54 280C165.008 280.149 164.502 280.378 164.04 280.68C163.667 280.94 163.359 281.282 163.14 281.68C162.935 282.042 162.799 282.439 162.74 282.85H158.87C158.922 281.93 159.185 281.033 159.64 280.23C160.103 279.411 160.733 278.699 161.49 278.14C162.332 277.518 163.276 277.048 164.28 276.75C165.452 276.407 166.669 276.238 167.89 276.25C169.152 276.235 170.41 276.389 171.63 276.71C172.674 276.985 173.643 277.487 174.47 278.18C175.269 278.891 175.886 279.783 176.27 280.78C176.728 282.004 176.945 283.305 176.91 284.61V294.07C176.91 295.3 176.91 296.38 176.91 297.3C176.925 298.207 176.992 299.112 177.11 300.01H173.72C173.63 299.33 173.57 298.7 173.55 298.09C173.53 297.48 173.55 296.81 173.55 296.09C173.244 296.723 172.835 297.301 172.34 297.8C171.811 298.341 171.213 298.808 170.56 299.19C169.842 299.606 169.072 299.925 168.27 300.14C167.38 300.377 166.461 300.495 165.54 300.49L165.5 300.48ZM166.34 296.96C167.211 296.965 168.078 296.837 168.91 296.58C169.687 296.355 170.414 295.981 171.05 295.48C171.664 294.999 172.161 294.383 172.5 293.68C172.861 292.919 173.043 292.084 173.03 291.24V289.65H166.1C164.909 289.585 163.726 289.885 162.71 290.51C162.293 290.821 161.961 291.233 161.746 291.707C161.531 292.181 161.439 292.702 161.48 293.22C161.467 293.726 161.565 294.227 161.767 294.691C161.969 295.154 162.271 295.567 162.65 295.9C163.699 296.697 165.008 297.075 166.32 296.96H166.34ZM182.62 300.48H182.29H181.96L181.63 300.43L181.3 300.37V296.49C181.382 296.526 181.471 296.543 181.56 296.54H181.96C182.59 296.554 183.204 296.333 183.68 295.92C184.249 295.321 184.644 294.578 184.82 293.77C185.166 292.4 185.387 291.001 185.48 289.59C185.627 287.83 185.7 285.6 185.7 282.9V276.74H202.4V300H198.53V280.11H189.53V283.72C189.56 286.424 189.413 289.126 189.09 291.81C188.902 293.573 188.464 295.301 187.79 296.94C187.363 298.046 186.605 298.992 185.62 299.65C184.709 300.178 183.673 300.45 182.62 300.44V300.48ZM209.46 300.04V276.68H213.33V285.48H218.92C220.208 285.457 221.492 285.626 222.73 285.98C223.704 286.272 224.609 286.759 225.39 287.41C226.106 288.03 226.659 288.817 227 289.7C227.365 290.686 227.544 291.73 227.53 292.78C227.541 293.805 227.361 294.822 227 295.78C226.664 296.651 226.122 297.426 225.42 298.04C224.644 298.7 223.738 299.187 222.76 299.47C221.523 299.833 220.239 300.005 218.95 299.98L209.46 300.04ZM213.33 296.61H218.7C220.054 296.73 221.407 296.376 222.53 295.61C223.238 294.826 223.629 293.807 223.629 292.75C223.629 291.694 223.238 290.675 222.53 289.89C221.409 289.12 220.054 288.766 218.7 288.89H213.33V296.55V296.61ZM243.54 300V276.68H247.41V286.45H250.49L259.2 276.68H263.78L253.66 287.85L264.22 300H259.29L250.49 289.79H247.41V300H243.54ZM268.84 300V276.68H272.71V294.28L284.77 276.68H288.64V300H284.77V282.4L272.71 300H268.84ZM295.68 300V276.68H299.55V286.4H311.61V276.68H315.48V300H311.61V289.83H299.55V300H295.68ZM332.2 300.44C330.745 300.45 329.299 300.202 327.93 299.71C326.598 299.244 325.383 298.493 324.37 297.51C323.294 296.459 322.452 295.191 321.9 293.79C321.257 292.123 320.944 290.347 320.98 288.56V287.68C320.945 285.969 321.258 284.268 321.9 282.68C322.466 281.334 323.307 280.122 324.37 279.12C325.398 278.166 326.609 277.432 327.93 276.96C330.695 275.999 333.705 275.999 336.47 276.96C337.814 277.442 339.043 278.2 340.076 279.185C341.109 280.17 341.925 281.361 342.47 282.68C343.112 284.268 343.425 285.969 343.39 287.68V288.56C343.426 290.347 343.113 292.123 342.47 293.79C341.918 295.191 341.076 296.459 340 297.51C338.985 298.491 337.771 299.242 336.44 299.71C335.071 300.202 333.625 300.45 332.17 300.44H332.2ZM332.2 296.92C333.099 296.914 333.991 296.758 334.84 296.46C335.715 296.153 336.511 295.654 337.17 295C337.897 294.271 338.46 293.395 338.82 292.43C339.279 291.193 339.496 289.88 339.46 288.56V287.68C339.494 286.446 339.276 285.218 338.82 284.07C338.449 283.143 337.887 282.305 337.17 281.61C336.512 280.968 335.714 280.486 334.84 280.2C333.129 279.614 331.271 279.614 329.56 280.2C328.686 280.486 327.888 280.968 327.23 281.61C326.513 282.305 325.951 283.143 325.58 284.07C325.124 285.218 324.906 286.446 324.94 287.68V288.56C324.904 289.88 325.121 291.193 325.58 292.43C325.94 293.395 326.503 294.271 327.23 295C327.889 295.654 328.685 296.153 329.56 296.46C330.409 296.758 331.301 296.914 332.2 296.92ZM346.94 306.6L348.7 300V295.16H353.54V300L349.14 306.6H346.94ZM372.24 300V276.68H376.38L384.69 291.2L393 276.68H396.87V300H393V283.06L386.09 294.94H383L376.09 283.06V300H372.24ZM407 309.24H406.34C406.117 309.222 405.897 309.185 405.68 309.13V305.61C405.897 305.665 406.117 305.702 406.34 305.72H407C407.392 305.732 407.781 305.657 408.14 305.5C408.521 305.304 408.848 305.015 409.09 304.66C409.488 304.12 409.823 303.536 410.09 302.92C410.41 302.18 410.79 301.2 411.23 300L401.33 276.68H405.64L413.21 295.6L420 276.68H424.14L415.36 300C414.74 301.64 414.16 303.05 413.6 304.22C413.134 305.253 412.535 306.221 411.82 307.1C411.26 307.799 410.544 308.357 409.73 308.73C408.866 309.09 407.936 309.264 407 309.24ZM435.6 300.44C434.27 300.46 432.944 300.295 431.66 299.95C430.584 299.678 429.567 299.21 428.66 298.57C427.859 297.992 427.199 297.24 426.73 296.37C426.241 295.441 425.955 294.419 425.89 293.37H429.76C429.842 293.907 430.047 294.417 430.36 294.86C430.688 295.324 431.11 295.713 431.6 296C432.142 296.321 432.733 296.551 433.35 296.68C434.09 296.835 434.844 296.909 435.6 296.9C437.141 297.034 438.686 296.685 440.02 295.9C440.439 295.634 440.785 295.268 441.027 294.836C441.27 294.403 441.401 293.917 441.41 293.42C441.436 292.911 441.346 292.403 441.147 291.933C440.947 291.464 440.644 291.046 440.26 290.71C439.084 289.922 437.669 289.569 436.26 289.71H432.26V286.54H436C437.223 286.657 438.447 286.33 439.45 285.62C439.796 285.286 440.064 284.88 440.237 284.431C440.41 283.982 440.482 283.5 440.45 283.02C440.441 282.572 440.327 282.132 440.117 281.736C439.907 281.34 439.606 280.999 439.24 280.74C438.147 280 436.837 279.647 435.52 279.74C434.166 279.63 432.811 279.93 431.63 280.6C431.229 280.884 430.89 281.246 430.636 281.666C430.381 282.086 430.216 282.554 430.15 283.04H426.28C426.363 282.091 426.638 281.169 427.09 280.33C427.56 279.485 428.196 278.744 428.96 278.15C429.814 277.509 430.776 277.025 431.8 276.72C433.009 276.374 434.262 276.205 435.52 276.22C436.834 276.198 438.144 276.367 439.41 276.72C440.41 277.007 441.344 277.486 442.16 278.13C442.871 278.698 443.431 279.434 443.79 280.27C444.15 281.132 444.33 282.057 444.32 282.99C444.343 284.03 444.05 285.051 443.48 285.92C442.823 286.856 441.884 287.557 440.8 287.92C441.534 288.086 442.235 288.377 442.87 288.78C443.393 289.114 443.853 289.537 444.23 290.03C444.578 290.497 444.833 291.027 444.98 291.59C445.132 292.188 445.206 292.804 445.2 293.42C445.204 294.366 444.992 295.3 444.58 296.15C444.152 297.02 443.529 297.78 442.76 298.37C441.858 299.051 440.842 299.566 439.76 299.89C438.397 300.291 436.981 300.483 435.56 300.46L435.6 300.44ZM450.78 300V276.68H454.65V285.48H459.36C460.648 285.457 461.932 285.626 463.17 285.98C464.144 286.272 465.049 286.759 465.83 287.41C466.535 288.034 467.078 288.82 467.41 289.7C467.775 290.686 467.954 291.73 467.94 292.78C467.951 293.805 467.771 294.822 467.41 295.78C467.074 296.651 466.532 297.426 465.83 298.04C465.054 298.7 464.148 299.187 463.17 299.47C461.933 299.833 460.649 300.005 459.36 299.98L450.78 300ZM454.65 296.57H459.14C460.494 296.69 461.847 296.336 462.97 295.57C463.678 294.786 464.069 293.767 464.069 292.71C464.069 291.654 463.678 290.635 462.97 289.85C461.849 289.08 460.494 288.726 459.14 288.85H454.65V296.51V296.57ZM471.55 300V276.68H475.42V300H471.55ZM482.46 300V276.68H486.33V286.45H489.41L498.12 276.68H502.7L492.58 287.85L503.14 300H498.21L489.41 289.79H486.33V300H482.46ZM507.76 300V276.68H511.63V294.28L523.69 276.68H527.56V300H523.69V282.4L511.63 300H507.76ZM545.6 300V276.68H549.47V294.28L561.53 276.68H565.4V300H561.53V282.4L549.47 300H545.6ZM588.76 300V280.11H580.76V276.68H600.56V280.11H592.56V300H588.76ZM614.24 300.44C612.787 300.446 611.343 300.206 609.97 299.73C608.638 299.279 607.422 298.538 606.41 297.56C605.338 296.505 604.497 295.238 603.94 293.84C603.296 292.156 602.984 290.363 603.02 288.56V287.68C602.984 285.972 603.283 284.274 603.9 282.68C604.431 281.345 605.231 280.133 606.25 279.12C607.227 278.17 608.396 277.44 609.68 276.98C611.002 276.51 612.396 276.273 613.8 276.28C617.23 276.28 619.89 277.22 621.8 279.09C623.71 280.96 624.62 283.63 624.62 287.09V289.55H606.89C606.858 290.738 607.083 291.918 607.55 293.01C607.943 293.9 608.531 294.689 609.27 295.32C609.96 295.897 610.76 296.329 611.62 296.59C612.468 296.856 613.351 296.991 614.24 296.99C615.651 297.073 617.059 296.769 618.31 296.11C619.223 295.543 619.925 294.694 620.31 293.69H624.1C623.888 294.75 623.459 295.755 622.84 296.64C622.249 297.484 621.502 298.207 620.64 298.77C619.738 299.362 618.745 299.802 617.7 300.07C616.557 300.367 615.381 300.515 614.2 300.51L614.24 300.44ZM606.89 286.31H620.89C620.891 285.264 620.687 284.228 620.29 283.26C619.961 282.489 619.458 281.805 618.82 281.26C618.179 280.74 617.437 280.358 616.64 280.14C615.773 279.905 614.878 279.787 613.98 279.79C613.087 279.786 612.198 279.911 611.34 280.16C610.511 280.4 609.739 280.805 609.07 281.35C608.397 281.912 607.852 282.611 607.47 283.4C607.037 284.319 606.825 285.326 606.85 286.34L606.89 286.31ZM636.72 300.44C635.566 300.46 634.418 300.274 633.33 299.89C632.4 299.563 631.549 299.045 630.83 298.37C630.154 297.73 629.628 296.948 629.29 296.08C628.926 295.158 628.746 294.172 628.76 293.18C628.728 292.155 628.908 291.133 629.29 290.18C629.618 289.398 630.137 288.71 630.8 288.18C631.536 287.618 632.386 287.222 633.29 287.02C634.4 286.756 635.539 286.628 636.68 286.64H644.25V285C644.27 284.152 644.159 283.305 643.92 282.49C643.737 281.868 643.392 281.306 642.92 280.86C642.436 280.435 641.856 280.133 641.23 279.98C640.467 279.798 639.684 279.711 638.9 279.72C638.178 279.71 637.458 279.798 636.76 279.98C636.231 280.128 635.728 280.358 635.27 280.66C634.897 280.92 634.589 281.262 634.37 281.66C634.165 282.022 634.029 282.419 633.97 282.83H630.1C630.152 281.91 630.415 281.013 630.87 280.21C631.333 279.391 631.963 278.679 632.72 278.12C633.562 277.498 634.506 277.028 635.51 276.73C636.682 276.387 637.899 276.218 639.12 276.23C640.382 276.215 641.64 276.369 642.86 276.69C643.904 276.965 644.873 277.467 645.7 278.16C646.499 278.871 647.116 279.763 647.5 280.76C647.958 281.984 648.175 283.285 648.14 284.59V294.05C648.14 295.28 648.14 296.36 648.14 297.28C648.155 298.187 648.222 299.092 648.34 299.99H645C644.91 299.31 644.85 298.68 644.82 298.07C644.79 297.46 644.82 296.79 644.82 296.07C644.514 296.703 644.105 297.281 643.61 297.78C643.081 298.321 642.483 298.788 641.83 299.17C641.111 299.584 640.341 299.904 639.54 300.12C638.649 300.357 637.731 300.475 636.81 300.47L636.72 300.44ZM637.56 296.92C638.431 296.925 639.298 296.797 640.13 296.54C640.907 296.315 641.634 295.941 642.27 295.44C642.884 294.959 643.38 294.343 643.72 293.64C644.081 292.879 644.263 292.044 644.25 291.2V289.61H637.34C636.149 289.545 634.966 289.845 633.95 290.47C633.533 290.781 633.201 291.193 632.986 291.667C632.771 292.141 632.679 292.662 632.72 293.18C632.708 293.685 632.805 294.185 633.005 294.648C633.206 295.111 633.504 295.524 633.88 295.86C634.934 296.655 636.245 297.032 637.56 296.92ZM659.82 300V280.11H651.82V276.68H671.62V280.11H663.62V300H659.82ZM676.06 308.8V276.68H679.67V281.08C680.056 280.321 680.544 279.618 681.12 278.99C681.673 278.395 682.309 277.883 683.01 277.47C683.725 277.054 684.496 276.744 685.3 276.55C687.498 276.026 689.803 276.169 691.92 276.96C693.092 277.437 694.138 278.176 694.98 279.12C695.89 280.153 696.571 281.366 696.98 282.68C697.459 284.303 697.688 285.989 697.66 287.68V288.56C697.687 290.316 697.448 292.066 696.95 293.75C696.556 295.119 695.874 296.387 694.95 297.47C694.132 298.43 693.106 299.189 691.95 299.69C690.7 300.202 689.36 300.457 688.01 300.44C686.249 300.504 684.51 300.045 683.01 299.12C681.74 298.3 680.706 297.162 680.01 295.82V308.82L676.06 308.8ZM687.06 297.01C687.969 297.014 688.868 296.826 689.7 296.46C690.521 296.088 691.248 295.538 691.83 294.85C692.472 294.074 692.951 293.176 693.24 292.21C693.598 291.028 693.77 289.796 693.75 288.56V287.68C693.771 286.523 693.598 285.371 693.24 284.27C692.935 283.351 692.457 282.499 691.83 281.76C691.249 281.084 690.52 280.55 689.7 280.2C688.865 279.846 687.967 279.666 687.06 279.67C686.067 279.658 685.08 279.831 684.15 280.18C683.314 280.487 682.551 280.963 681.91 281.58C681.29 282.191 680.797 282.918 680.46 283.72C680.105 284.555 679.925 285.454 679.93 286.36V289.88C679.92 290.872 680.1 291.856 680.46 292.78C680.784 293.622 681.277 294.388 681.91 295.03C682.551 295.66 683.313 296.153 684.15 296.48C685.077 296.841 686.065 297.021 687.06 297.01ZM709.76 300.44C708.606 300.46 707.458 300.274 706.37 299.89C705.44 299.563 704.589 299.045 703.87 298.37C703.194 297.73 702.668 296.948 702.33 296.08C701.966 295.158 701.786 294.172 701.8 293.18C701.768 292.155 701.948 291.133 702.33 290.18C702.658 289.398 703.177 288.71 703.84 288.18C704.576 287.618 705.426 287.222 706.33 287.02C707.44 286.756 708.579 286.628 709.72 286.64H717.29V285C717.31 284.152 717.199 283.305 716.96 282.49C716.777 281.868 716.432 281.306 715.96 280.86C715.476 280.435 714.896 280.133 714.27 279.98C713.507 279.798 712.724 279.711 711.94 279.72C711.218 279.71 710.498 279.798 709.8 279.98C709.271 280.128 708.768 280.358 708.31 280.66C707.937 280.92 707.629 281.262 707.41 281.66C707.205 282.022 707.069 282.419 707.01 282.83H703.14C703.192 281.91 703.455 281.013 703.91 280.21C704.373 279.391 705.003 278.679 705.76 278.12C706.602 277.498 707.546 277.028 708.55 276.73C709.722 276.387 710.939 276.218 712.16 276.23C713.422 276.215 714.68 276.369 715.9 276.69C716.944 276.965 717.913 277.467 718.74 278.16C719.539 278.871 720.156 279.763 720.54 280.76C720.998 281.984 721.215 283.285 721.18 284.59V294.05C721.18 295.28 721.18 296.36 721.18 297.28C721.195 298.187 721.262 299.092 721.38 299.99H718C717.91 299.31 717.85 298.68 717.82 298.07C717.79 297.46 717.82 296.79 717.82 296.07C717.514 296.703 717.105 297.281 716.61 297.78C716.081 298.321 715.483 298.788 714.83 299.17C714.111 299.584 713.341 299.904 712.54 300.12C711.649 300.357 710.731 300.475 709.81 300.47L709.76 300.44ZM710.6 296.92C711.471 296.925 712.338 296.797 713.17 296.54C713.947 296.315 714.674 295.941 715.31 295.44C715.924 294.959 716.42 294.343 716.76 293.64C717.121 292.879 717.303 292.044 717.29 291.2V289.61H710.38C709.189 289.545 708.006 289.845 706.99 290.47C706.573 290.781 706.241 291.193 706.026 291.667C705.811 292.141 705.719 292.662 705.76 293.18C705.748 293.685 705.845 294.185 706.045 294.648C706.246 295.111 706.544 295.524 706.92 295.86C707.974 296.655 709.285 297.032 710.6 296.92Z" fill="#583D3E"/>
</g>
<defs>
<clipPath id="clip0_527_2814">
<rect width="731.53" height="309.24" fill="white"/>
</clipPath>
</defs>
</svg>
